<svg id="Group_40" data-name="Group 40" xmlns="http://www.w3.org/2000/svg" xmlns:xlink="http://www.w3.org/1999/xlink" width="108.59" height="108.59" viewBox="0 0 108.59 108.59">
  <defs>
    <clipPath id="clip-path">
      <rect id="Rectangle_26" data-name="Rectangle 26" width="108.59" height="108.59" fill="none"/>
    </clipPath>
  </defs>
  <g id="Group_39" data-name="Group 39" clip-path="url(#clip-path)">
    <path id="Path_31" data-name="Path 31" d="M34.653,63.234c-.229.652-.783,10.95-.639,11.871.3.033.624.075.947.1a2.725,2.725,0,0,1,2.56,2.362,6.114,6.114,0,0,1-.007,1.756,2.681,2.681,0,0,1-2.658,2.333c-1.619.035-3.238.006-4.858,0a3.13,3.13,0,0,1-1.855-.671,2.564,2.564,0,0,1-1.079-1.959q-.378-5.112-.775-10.222-.4-5.343-.806-10.685a2.5,2.5,0,0,0-.143-.753,23.819,23.819,0,0,1-1.368-5.915c-.084-.611-.193-1.218-.264-1.83a.552.552,0,0,0-.424-.557c-3.43-.986-5.621-3.375-7.2-6.424a18.63,18.63,0,0,1-1.826-5.462c-.11-.647-.011-1.008.306-1.074.506-.1.74.281.955.629.839,1.355,1.659,2.72,2.492,4.079a11.267,11.267,0,0,0,2.12,2.632,6.656,6.656,0,0,0,3.388,1.646c.075-.049.138-.067.158-.106a9.475,9.475,0,0,1,4.773-4.076,15.468,15.468,0,0,1,6.4-1.505c3.238-.04,6.473-.189,9.71-.291q4.932-.156,9.863-.314c2.414-.08,4.828-.173,7.242-.262.653-.024.626-.033.8-.672.378-1.359.792-2.708,1.176-4.065a4.752,4.752,0,0,0,.155-.9c.263-3.2.509-6.4.785-9.6a5.388,5.388,0,0,1,.467-1.719,2.31,2.31,0,0,1,.162.379,6.136,6.136,0,0,0,2.33,3.355c.059.049.126.09.183.141a4.781,4.781,0,0,0,3.317,1.195,36.267,36.267,0,0,1,4.156.186A11.534,11.534,0,0,1,82.9,30.9a11.743,11.743,0,0,1,2.171,3.791A13.151,13.151,0,0,0,86,36.718a2.051,2.051,0,0,0,1.6,1.074c.711.094,1.408.284,2.108.446a1.7,1.7,0,0,1,1.474,1.8c.06,2.133.115,4.265.145,6.4a2.357,2.357,0,0,1-2.3,2.5c-3.765.3-7.524.666-11.306.674-.179,0-.359.011-.538.023a.484.484,0,0,0-.483.416c-.27,1.2-.627,2.394-.789,3.612a11.955,11.955,0,0,1-1.532,4.49A16.364,16.364,0,0,1,69.93,63.3a1.042,1.042,0,0,0-.489.818c-.252,3.356-.519,6.711-.779,10.066-.021.277,0,.557,0,.912.333.043.628.1.927.116a2.643,2.643,0,0,1,1.6.676,3.623,3.623,0,0,1-.152,5.216,2.52,2.52,0,0,1-1.565.563c-1.621,0-3.241.039-4.858-.017a2.94,2.94,0,0,1-2.99-3.053q-.276-6.276-.58-12.553c-.011-.251-.043-.5-.07-.816-.327-.022-.6-.056-.876-.058-1.645-.012-3.291.029-4.935-.035-2.462-.1-4.927-.218-7.384-.416-2.764-.224-5.521-.524-8.277-.831-1.5-.167-3-.417-4.5-.629-.1-.014-.2-.014-.349-.024" fill="#c3ea19"/>
    <circle id="Ellipse_6" data-name="Ellipse 6" cx="50.795" cy="50.795" r="50.795" transform="translate(3.5 3.5)" fill="none" stroke="#1dc3ea" stroke-miterlimit="10" stroke-width="7"/>
  </g>
</svg>
