<svg id="Group_40" data-name="Group 40" xmlns="http://www.w3.org/2000/svg" xmlns:xlink="http://www.w3.org/1999/xlink" width="238.847" height="342.463" viewBox="0 0 238.847 342.463">
  <defs>
    <clipPath id="clip-path">
      <rect id="Rectangle_27" data-name="Rectangle 27" width="238.847" height="342.463" fill="none"/>
    </clipPath>
  </defs>
  <g id="Group_39" data-name="Group 39" clip-path="url(#clip-path)">
    <path id="Path_31" data-name="Path 31" d="M101.844,68.781c-.229.652-.783,10.95-.639,11.871.3.033.623.075.947.1a2.723,2.723,0,0,1,2.559,2.361,6.157,6.157,0,0,1-.006,1.757,2.681,2.681,0,0,1-2.658,2.333c-1.619.035-3.238.006-4.858,0a3.13,3.13,0,0,1-1.855-.671,2.564,2.564,0,0,1-1.079-1.959q-.379-5.112-.775-10.222-.4-5.343-.806-10.685a2.5,2.5,0,0,0-.144-.753A23.817,23.817,0,0,1,91.163,57c-.085-.611-.193-1.218-.264-1.83a.553.553,0,0,0-.425-.557c-3.429-.986-5.62-3.375-7.2-6.424a18.6,18.6,0,0,1-1.826-5.462c-.11-.647-.011-1.008.306-1.074.506-.1.74.281.955.629.838,1.355,1.659,2.72,2.491,4.079a11.271,11.271,0,0,0,2.121,2.632,6.656,6.656,0,0,0,3.388,1.646c.075-.049.137-.067.157-.106a9.482,9.482,0,0,1,4.774-4.076,15.452,15.452,0,0,1,6.4-1.505c3.238-.04,6.473-.189,9.709-.291q4.932-.156,9.864-.314c2.414-.08,4.827-.173,7.241-.262.653-.024.626-.033.8-.672.377-1.359.792-2.708,1.176-4.065a4.753,4.753,0,0,0,.155-.9c.263-3.2.509-6.4.784-9.6a5.441,5.441,0,0,1,.467-1.719,2.4,2.4,0,0,1,.163.379,6.135,6.135,0,0,0,2.329,3.355c.06.049.126.09.184.141a4.78,4.78,0,0,0,3.316,1.2,36.274,36.274,0,0,1,4.157.186A11.539,11.539,0,0,1,150.1,36.45a11.722,11.722,0,0,1,2.17,3.791,13.252,13.252,0,0,0,.927,2.024,2.048,2.048,0,0,0,1.6,1.074c.71.094,1.408.284,2.108.446a1.694,1.694,0,0,1,1.473,1.8c.06,2.133.115,4.265.146,6.4a2.358,2.358,0,0,1-2.3,2.5c-3.764.3-7.524.666-11.3.674-.18,0-.36.011-.539.023a.483.483,0,0,0-.482.416c-.27,1.2-.627,2.394-.79,3.612a11.971,11.971,0,0,1-1.531,4.49,16.364,16.364,0,0,1-4.453,5.156,1.042,1.042,0,0,0-.489.818c-.252,3.356-.52,6.711-.779,10.066-.021.277,0,.557,0,.912.332.043.628.1.926.116a2.643,2.643,0,0,1,1.6.676,3.623,3.623,0,0,1-.152,5.216,2.525,2.525,0,0,1-1.566.563c-1.62,0-3.24.039-4.858-.017a2.94,2.94,0,0,1-2.989-3.053q-.276-6.276-.58-12.553c-.012-.251-.043-.5-.07-.816-.327-.022-.6-.056-.876-.058-1.645-.012-3.292.029-4.935-.035-2.463-.1-4.928-.218-7.385-.416-2.763-.224-5.52-.524-8.276-.831-1.5-.167-3-.417-4.5-.629-.1-.014-.2-.014-.349-.024" fill="#c3ea19"/>
    <path id="Path_32" data-name="Path 32" d="M119.172,342.462q-51.759,0-103.518,0c-7.409,0-7.791-.4-7.792-7.979,0-31.688-.045-166.789.059-198.477.011-3.51-.672-6.108-3.484-8.6-5.666-5.032-5.556-5.952-1.643-12.615,9.65-16.435,19.141-32.968,29.042-49.252A26.106,26.106,0,0,0,35.83,50.594c-.282-10.75-.084-10.755,10.9-10.755,5.143,0,10.291-.142,15.426.057,2.709.1,3.988-.708,5.035-3.376C76.057,13.94,95.928.072,119.138,0c23.518-.072,43.474,13.709,52.473,36.479,1.034,2.617,2.256,3.5,5.011,3.423,6.8-.2,13.6.046,20.4-.1,4.139-.092,6.613,1.482,5.994,5.779-1.416,9.836,2.4,17.855,7.458,25.941,8.957,14.329,17.236,29.083,25.794,43.661,3.6,6.136,3.72,7.167-1.513,11.85-3.035,2.716-3.9,5.528-3.879,9.446.149,31.355.083,166.125.081,197.481,0,8.286-.211,8.505-8.269,8.505q-51.759,0-103.518,0M16.193,134.492V334.24H27.779v-5.588c0-25.063-.011-27,.009-52.065,0-5.8.822-6.611,6.652-6.617q29.127-.033,58.255,0c6.064.006,6.79.76,6.794,6.985.013,25.063.006,27,.006,52.065v5.216H123.08v-11.7c-2.44,0-4.745.5-6.662-.145-1.845-.622-3.288-2.434-4.908-3.723a45.994,45.994,0,0,1,4.675-4.016c.691-.461,1.941-.086,2.937-.086q42.074,0,84.146,0c1.162,0,2.6-.414,3.427.114a30.441,30.441,0,0,1,4.272,3.9c-1.426,1.312-2.659,3.283-4.327,3.773-2.23.656-4.8.162-7.17.162v11.7h23.263V135.556c-5.88-.458-11.7,0-16.909-1.569-5.356-1.613-10.117-5.205-15.28-8.009-12.287,13.1-33.712,13.172-46.941-.767a32.457,32.457,0,0,1-47.993-.337,29.927,29.927,0,0,1-23.572,10.683c-9.71.021-17.566-3.675-24.2-10.734-8.677,9.868-19.286,12.365-31.641,9.669m103.278-30.914A47.8,47.8,0,1,0,71.615,55.842a47.86,47.86,0,0,0,47.856,47.736M59.155,278.187H36.04v55.971H91.156V278.21M230.032,120.3c-10.68-18.171-21.213-36.148-31.853-54.062a5.024,5.024,0,0,0-3.242-2.369c-4.545-.271-9.117-.111-14.1-.111.5,1.912.8,3.174,1.154,4.419,4.553,15.867,9,31.767,13.785,47.565a16.178,16.178,0,0,0,4.739,7.3c8.225,6.952,21.759,5.674,29.521-2.746M8.1,121.478c4.393,2.078,8.019,4.552,12.012,5.536,10.716,2.64,21.4-3.344,23.389-12.295,1.36-6.108,2.922-12.184,4.686-18.188C51.339,85.783,54.715,75.1,58.192,63.762c-5.268,0-9.859-.125-14.433.1A4.417,4.417,0,0,0,40.83,65.9C30.121,83.956,19.506,102.063,8.1,121.478M64.624,70.249c-3.9,12.6-7.7,25.437-11.873,38.148-1.951,5.944-.008,10.382,4.246,14.171,7.182,6.4,21.689,6.593,29.236.557,5.167-4.133,5.152-9.872,5.419-15.791.195-4.341-3.34-4.768-5.4-6.82-4.1-4.073-8.716-7.808-11.989-12.475-3.82-5.445-6.431-11.738-9.634-17.79m109.138-1.441c-4.55,15.182-12.435,26.286-24.684,34.146a4.176,4.176,0,0,0-1.684,2.194c-1.874,7.034,1.027,15.308,7.039,18.819,8.559,5,17.419,4.875,26.019.045,4.794-2.692,7.611-8.545,6.28-13.021-4.052-13.63-8.34-27.19-12.97-42.183m17.083,254.034H131.726v11.432h59.119ZM99.7,107.961c-.85,7.6,1.523,13.153,7.7,16.447,8.692,4.637,17.614,4.433,25.935-.893,5.406-3.46,6.63-8.981,5.652-15.474a56.523,56.523,0,0,1-39.286-.08M63.527,55.585c.165-2.663.306-4.951.464-7.51H44.014v7.51Zm111.8-.2h19.5V48.1H174.777c.2,2.586.367,4.876.547,7.279" fill="#1dc3ea"/>
    <rect id="Rectangle_26" data-name="Rectangle 26" width="59.119" height="11.432" transform="translate(131.726 322.843)" fill="#1dc3ea"/>
    <path id="Path_33" data-name="Path 33" d="M54.194,185.576a41.547,41.547,0,0,1,.445,4.373,32.46,32.46,0,0,1-.351,6.564c-.657,3.236-3.436,4.888-7.235,4.733-3.585-.147-6.094-2.141-6.731-5.51a22.855,22.855,0,0,1-.388-4.392c.069-8.38.252-16.76.282-25.14.012-3.214-.282-6.429-.432-9.643-.244-5.274,1.875-8.435,6.882-10.295,4.78-1.775,9.775-1.852,14.737-1.529a58.027,58.027,0,0,1,10.873,1.684,13.89,13.89,0,0,1,9.519,8.618,26.505,26.505,0,0,1,.839,17.759c-2.288,7.89-9.392,12.963-18.109,13.146-3.339.07-6.686-.227-10.331-.368m-1.638-20.5h.016c0,.806-.049,1.615.008,2.417.326,4.581,1.881,6.466,6.234,6.98,4.443.525,9.815-1.167,11.085-5.983,1.787-6.781-.834-12.723-9.816-12.725-5,0-7.282,2.459-7.523,7.5-.029.6,0,1.209,0,1.813" fill="#1dc3ea"/>
    <path id="Path_34" data-name="Path 34" d="M63.359,264.346a28.76,28.76,0,0,1-12.428-2.264c-7.185-3.212-10.986-9.088-12.545-16.482a41.442,41.442,0,0,1,1.234-22.235c3.315-9.713,11.016-15.08,22.057-15.41,5.438-.162,10.772.549,15.533,3.442a11.66,11.66,0,0,1,3.193,2.992,7.02,7.02,0,0,1-.086,8.6c-1.878,2.063-6.142,2.7-8.819,1.3a11.93,11.93,0,0,1-1.361-.864c-7.9-5.614-15.977-2.832-18.308,6.48-1.366,5.457-1.347,10.965,1.645,15.987a11.754,11.754,0,0,0,16.517,3.963,26.693,26.693,0,0,1,3.21-2.073,14.283,14.283,0,0,1,4.938-1.4c3.263-.068,5.367,2.236,5.465,5.474.13,4.315-2.079,7.26-5.688,9.247a29.605,29.605,0,0,1-14.557,3.245" fill="#c3ea19"/>
    <path id="Path_35" data-name="Path 35" d="M124.536,234.125q.529,11.645,1.064,23.288c.173,3.664-.786,5.481-3.494,6.5a7.037,7.037,0,0,1-8.326-2.277c-1.785-2.307-1.785-2.307-3.912-.5A13.459,13.459,0,0,1,89.715,258c-5.025-8.051-4.3-22.184,1.5-29.781,4.037-5.282,9.706-7.217,16.025-7.62a30.909,30.909,0,0,1,7.234.384c6.14,1.073,11.178,4.221,10.6,13.119l-.542.027m-10.776,5.36-.307-.114a19.651,19.651,0,0,0-.533-4.351,5.091,5.091,0,0,0-2.214-2.856,7.061,7.061,0,0,0-8.084,1.071c-3.86,3.563-4.424,8.322-3.9,13.134.454,4.188,2.425,6.135,5.472,6.455,3.543.373,6.229-1.314,7.59-5.234a82.561,82.561,0,0,0,1.978-8.1" fill="#c3ea19"/>
    <path id="Path_36" data-name="Path 36" d="M180.648,247.288c-1.21,0-2.42-.007-3.63,0-1.795.013-2.271.549-1.707,2.161a7.161,7.161,0,0,0,4.534,4.816,9.372,9.372,0,0,0,9.325-1.5c.886-.723,1.717-1.517,2.639-2.187a5.825,5.825,0,0,1,7.294-.006c1.9,1.47,2.476,4.134,1.167,6.768a10.937,10.937,0,0,1-2.785,3.61c-6.985,5.613-20.579,5.741-27.682.352-4.259-3.232-6.325-7.723-7.182-12.848-1.057-6.316-.576-12.435,2.555-18.167,6.129-11.222,23.078-13.436,31.916-4.179a11.642,11.642,0,0,1-4.419,19.24c-3.816,1.321-7.929,1.787-11.907,2.64-.039-.234-.079-.468-.118-.7m-.678-7.586c2.4-.882,4.735-1.386,6.681-2.544a3.7,3.7,0,0,0,.169-6.466c-2.736-1.551-7.9-.577-9.838,1.887-1.192,1.514-1.9,3.433-.921,5.027.64,1.038,2.446,1.362,3.909,2.1" fill="#c3ea19"/>
    <path id="Path_37" data-name="Path 37" d="M86.229,180.352c.735-3.792,1.105-7.7,2.282-11.351,2.323-7.2,7.734-10.831,15.14-11.711a23.058,23.058,0,0,1,14.8,2.684A12.452,12.452,0,0,1,123.07,177.1c-2.079,3.577-5.743,4.23-9.366,4.646-3.535.4-7.115.4-10.667.69-1.549.125-3.544-.088-4.043,1.909s.508,3.655,2.1,4.906c3.607,2.84,10.071,2.631,13.5-.432.5-.448.954-.948,1.45-1.4a5.526,5.526,0,0,1,7.193-.618,5.155,5.155,0,0,1,1.994,6.7,10.233,10.233,0,0,1-3.285,4.171A25.459,25.459,0,0,1,97.9,200.413C90.424,197.6,87.463,191.4,86.774,183.87c-.1-1.131-.014-2.281-.014-3.421-.177-.033-.354-.066-.531-.1m17.847-5.7c.012.082.024.166.037.248,1.972-.312,3.981-.485,5.906-.981a3.516,3.516,0,0,0,2.844-3.472,3.254,3.254,0,0,0-2.721-3.315,19.058,19.058,0,0,0-5.924-.536,5.624,5.624,0,0,0-4.836,4.274c-.887,2.82-.249,3.687,2.682,3.778.67.022,1.341,0,2.012,0" fill="#1dc3ea"/>
    <path id="Path_38" data-name="Path 38" d="M183.623,157.233a80.334,80.334,0,0,1,8.129,2.117,8.839,8.839,0,0,1,3.656,3,5.628,5.628,0,0,1,.154,6.92c-1.527,1.783-4.843,2.311-7.287,1.22a45.7,45.7,0,0,0-6.1-2.507,6.86,6.86,0,0,0-3.9.231,2.979,2.979,0,0,0-1.673,2.19,3.2,3.2,0,0,0,1.452,2.53,39.236,39.236,0,0,0,6.19,1.635c1.57.35,3.184.5,4.746.879,8.376,2.013,11.964,9.144,8.688,17.19-1.941,4.767-5.912,7-10.587,8.14a25.377,25.377,0,0,1-16.4-1.223c-4.4-1.885-6.729-5.258-6.351-9.475.182-2.02.855-3.82,2.968-4.645a5.159,5.159,0,0,1,5.775,1.118c.738.687,1.412,1.445,2.18,2.1a9.016,9.016,0,0,0,9.6,1.668c1.349-.51,2.581-1.467,2.181-2.95a4.332,4.332,0,0,0-2.277-2.662c-2.322-.811-4.84-1.038-7.233-1.672a35.264,35.264,0,0,1-5.882-2,10.675,10.675,0,0,1-6.641-9.98,11.759,11.759,0,0,1,5.778-10.823c3.481-2.2,7.389-2.7,12.834-2.992" fill="#1dc3ea"/>
    <path id="Path_39" data-name="Path 39" d="M134.3,171.839c-4.491-.937-6.33-2.734-6.4-6.234-.068-3.393,1.933-5.57,5.772-5.9,1.794-.157,2.408-.791,2.04-2.518a11.222,11.222,0,0,1-.242-2.4,7.106,7.106,0,0,1,10.415-6.4c1.758.819,2.625,2.567,2.416,5.091-.126,1.534-.361,3.06-.578,4.585-.2,1.378.466,1.819,1.737,1.7s2.549-.167,3.815-.324c3.956-.492,6.81,1.323,7.22,4.634.516,4.156-1.745,7.249-5.813,7.647a47.362,47.362,0,0,1-6.235-.025c-1.259-.045-1.917.429-1.921,1.71-.013,4.02-.179,8.046.01,12.056.168,3.544,1.862,4.536,5.308,3.526.451-.132.907-.253,1.345-.42,1.931-.736,3.841-1.024,5.4.7,1.6,1.773,1.625,3.9.99,6.053a7.558,7.558,0,0,1-4.943,4.953,19.536,19.536,0,0,1-12.284.7,9.37,9.37,0,0,1-7-7.358,54.932,54.932,0,0,1-1.014-9.553c-.164-4.012-.039-8.036-.039-12.214" fill="#1dc3ea"/>
    <path id="Path_40" data-name="Path 40" d="M145.43,228.837a50.048,50.048,0,0,1,2.847-4.321c2.69-3.294,8.159-3.905,11.039-1.332,2.769,2.473,2.682,5.574,1.685,8.71s-3.586,4.327-6.674,4.645c-1,.1-2.014.137-3,.315a6.93,6.93,0,0,0-6.008,6.988c.037,3.343.472,6.68.667,10.023a29.741,29.741,0,0,1,.07,5.61c-.425,3.18-2.714,4.867-6.138,4.9-4.147.039-7.052-1.778-7.4-5.307a60.812,60.812,0,0,1,.041-10.828,60.063,60.063,0,0,0-1.044-18.377c-1.4-6.142,2.1-9.62,8.312-8.627,2.869.458,4.2,2.408,4.975,4.918.253.818.4,1.67.628,2.683" fill="#c3ea19"/>
  </g>
</svg>
